HIERARCHY
ROOT joint_0
{
	OFFSET 0.000000 0.000000 0.000000
	CHANNELS 6 Xposition Yposition Zposition Zrotation Yrotation Xrotation 
	JOINT joint_1
	{
		OFFSET 7.745728 2.152245 124.869995
		CHANNELS 3 Zrotation Yrotation Xrotation
		JOINT joint_2
		{
			OFFSET -6.359406 2.617477 113.975952
			CHANNELS 3 Zrotation Yrotation Xrotation
			JOINT joint_3
			{
				OFFSET -8.187927 3.340103 113.713013
				CHANNELS 3 Zrotation Yrotation Xrotation
				JOINT joint_4
				{
					OFFSET 2.859222 5.755905 159.680054
					CHANNELS 3 Zrotation Yrotation Xrotation
					JOINT joint_5
					{
						OFFSET 22.724274 2.598469 88.906982
						CHANNELS 3 Zrotation Yrotation Xrotation
						End Site
						{
							OFFSET 0.000000 0.000000 0.000000
						}
					}
				}
				JOINT joint_6
				{
					OFFSET 2.312134 -31.513222 90.723022
					CHANNELS 3 Zrotation Yrotation Xrotation
					JOINT joint_7
					{
						OFFSET -0.486389 -150.827950 -17.660034
						CHANNELS 3 Zrotation Yrotation Xrotation
						JOINT joint_8
						{
							OFFSET 15.633850 -16.961029 -297.395020
							CHANNELS 3 Zrotation Yrotation Xrotation
							JOINT joint_9
							{
								OFFSET 5.600098 1.609863 -262.782959
								CHANNELS 3 Zrotation Yrotation Xrotation
								End Site
								{
									OFFSET 0.000000 0.000000 0.000000
								}
							}
						}
					}
				}
				JOINT joint_10
				{
					OFFSET 1.012756 37.963039 88.243042
					CHANNELS 3 Zrotation Yrotation Xrotation
					JOINT joint_11
					{
						OFFSET -2.397430 150.471996 -20.492065
						CHANNELS 3 Zrotation Yrotation Xrotation
						JOINT joint_12
						{
							OFFSET -10.575745 12.779427 -297.765015
							CHANNELS 3 Zrotation Yrotation Xrotation
							JOINT joint_13
							{
								OFFSET 196.311081 2.689713 -176.286011
								CHANNELS 3 Zrotation Yrotation Xrotation
								End Site
								{
									OFFSET 0.000000 0.000000 0.000000
								}
							}
						}
					}
				}
			}
		}
	}
	JOINT joint_14
	{
		OFFSET 1.244965 -96.891136 -118.152039
		CHANNELS 3 Zrotation Yrotation Xrotation
		JOINT joint_15
		{
			OFFSET -2.982971 -16.401871 -443.439026
			CHANNELS 3 Zrotation Yrotation Xrotation
			JOINT joint_16
			{
				OFFSET -42.052063 -15.386002 -460.966980
				CHANNELS 3 Zrotation Yrotation Xrotation
				JOINT joint_17
				{
					OFFSET 177.916595 102.818184 -88.655001
					CHANNELS 3 Zrotation Yrotation Xrotation
					End Site
					{
						OFFSET 0.000000 0.000000 0.000000
					}
				}
			}
		}
	}
	JOINT joint_18
	{
		OFFSET 1.788635 96.476997 -118.463074
		CHANNELS 3 Zrotation Yrotation Xrotation
		JOINT joint_19
		{
			OFFSET -9.555542 8.093691 -443.574951
			CHANNELS 3 Zrotation Yrotation Xrotation
			JOINT joint_20
			{
				OFFSET -48.427551 9.415819 -460.500023
				CHANNELS 3 Zrotation Yrotation Xrotation
				JOINT joint_21
				{
					OFFSET 204.978119 20.223980 -87.523996
					CHANNELS 3 Zrotation Yrotation Xrotation
					End Site
					{
						OFFSET 0.000000 0.000000 0.000000
					}
				}
			}
		}
	}
}
MOTION
Frames: 10
Frame Time: 0.016667
593.228638 -120.626953 1146.301025 0.947616 -0.267173 0.572244 0.777654 -1.322669 -2.612248 0.967079 0.193440 0.609070 0.907756 -0.285600 -0.447778 -0.583626 0.437471 2.208037 0.000000 0.000000 0.000000 4.882002 -0.794666 4.049976 -0.168628 -0.177740 -4.482348 0.004679 1.581769 0.643526 0.000000 0.000000 0.000000 -3.074448 -1.624589 0.225709 -1.475787 -1.294436 2.490204 0.789422 49.080289 -0.710833 0.000000 0.000000 0.000000 -20.851830 -0.239574 -0.514862 -20.709037 -2.365128 -3.190437 -20.889455 1.245087 -11.509946 0.000000 0.000000 0.000000 -2.334585 -0.661604 0.097470 -2.251148 2.229074 -0.687837 -2.156531 3.759012 -1.288617 0.000000 0.000000 0.000000 
593.337463 -120.597023 1146.145996 0.937646 -0.269292 0.602106 0.783615 -1.324601 -2.646145 0.975359 0.194207 0.616174 0.915270 -0.287882 -0.452684 -0.580865 0.471785 2.193357 0.000000 0.000000 0.000000 4.883664 -0.804575 4.056343 -0.169850 -0.187332 -4.492050 0.005028 1.571385 0.659487 0.000000 0.000000 0.000000 -3.085672 -1.625772 0.222152 -1.476752 -1.294133 2.486165 0.788238 49.082732 -0.711122 0.000000 0.000000 0.000000 -20.853005 -0.247702 -0.542664 -20.711714 -2.336817 -3.198103 -20.893214 1.141265 -11.446609 0.000000 0.000000 0.000000 -2.329790 -0.665913 0.062084 -2.246302 2.258567 -0.693809 -2.154084 3.726280 -1.284314 0.000000 0.000000 0.000000 
593.458740 -120.569336 1145.999023 0.930817 -0.271497 0.631819 0.788223 -1.326307 -2.680252 0.982403 0.194812 0.624379 0.921459 -0.289764 -0.457472 -0.577952 0.503011 2.178462 0.000000 0.000000 0.000000 4.882966 -0.815228 4.064361 -0.171477 -0.197879 -4.507777 0.005417 1.559594 0.676505 0.000000 0.000000 0.000000 -3.096749 -1.629038 0.216338 -1.477127 -1.295820 2.484621 0.787795 49.086271 -0.710804 0.000000 0.000000 0.000000 -20.856164 -0.254330 -0.570049 -20.715929 -2.319224 -3.206515 -20.899584 1.060892 -11.398642 0.000000 0.000000 0.000000 -2.325673 -0.667355 0.026440 -2.242336 2.283696 -0.698796 -2.152245 3.694841 -1.280393 0.000000 0.000000 0.000000 
593.601257 -120.555740 1145.869995 0.929429 -0.274679 0.661566 0.791419 -1.328352 -2.716535 0.988339 0.195657 0.634077 0.926509 -0.291280 -0.461268 -0.574413 0.528692 2.161801 0.000000 0.000000 0.000000 4.877542 -0.826363 4.077717 -0.173034 -0.209468 -4.529467 0.005657 1.549515 0.685981 0.000000 0.000000 0.000000 -3.110430 -1.634521 0.209078 -1.474088 -1.299094 2.484861 0.790662 49.090268 -0.705100 0.000000 0.000000 0.000000 -20.861660 -0.256311 -0.596790 -20.721335 -2.328545 -3.216577 -20.909750 1.038706 -11.387311 0.000000 0.000000 0.000000 -2.322657 -0.660410 -0.010184 -2.240079 2.296774 -0.700504 -2.151385 3.665063 -1.277049 0.000000 0.000000 0.000000 
593.761353 -120.551727 1145.753052 0.932348 -0.278581 0.691918 0.793202 -1.330520 -2.756418 0.993337 0.196175 0.647075 0.930361 -0.291590 -0.464728 -0.570344 0.549791 2.143631 0.000000 0.000000 0.000000 4.868554 -0.838174 4.094226 -0.174829 -0.222114 -4.557046 0.005863 1.538369 0.692721 0.000000 0.000000 0.000000 -3.125563 -1.642546 0.199900 -1.469066 -1.304513 2.487339 0.795552 49.095604 -0.696437 0.000000 0.000000 0.000000 -20.869825 -0.255237 -0.623412 -20.728549 -2.358437 -3.228051 -20.923779 1.060125 -11.403896 0.000000 0.000000 0.000000 -2.320586 -0.647360 -0.048252 -2.239226 2.301190 -0.699724 -2.151370 3.636895 -1.274217 0.000000 0.000000 0.000000 
593.928467 -120.547699 1145.650024 0.939143 -0.279650 0.718478 0.793379 -1.334555 -2.789314 0.996142 0.197736 0.657102 0.932419 -0.293395 -0.466878 -0.565738 0.568845 2.123641 0.000000 0.000000 0.000000 4.859408 -0.850195 4.111122 -0.176623 -0.234992 -4.588529 0.006015 1.530444 0.697813 0.000000 0.000000 0.000000 -3.140449 -1.651163 0.189588 -1.464792 -1.310635 2.490657 0.799746 49.098657 -0.690069 0.000000 0.000000 0.000000 -20.876828 -0.254692 -0.646590 -20.734692 -2.385413 -3.238491 -20.935968 1.083077 -11.420878 0.000000 0.000000 0.000000 -2.319906 -0.637683 -0.081648 -2.239526 2.306063 -0.699391 -2.152514 3.608864 -1.271897 0.000000 0.000000 0.000000 
594.091919 -120.539154 1145.568970 0.950093 -0.273340 0.737837 0.791019 -1.342775 -2.809181 0.995432 0.197452 0.663035 0.931081 -0.293359 -0.469477 -0.560556 0.586280 2.101676 0.000000 0.000000 0.000000 4.855006 -0.863907 4.128608 -0.178244 -0.248998 -4.624373 0.006093 1.530391 0.702720 0.000000 0.000000 0.000000 -3.152944 -1.659999 0.179121 -1.463061 -1.317543 2.494124 0.801383 49.095563 -0.689874 0.000000 0.000000 0.000000 -20.880209 -0.259295 -0.662798 -20.737930 -2.394464 -3.245752 -20.942417 1.082961 -11.422128 0.000000 0.000000 0.000000 -2.321425 -0.641381 -0.105879 -2.241147 2.319002 -0.700862 -2.155256 3.582183 -1.270400 0.000000 0.000000 0.000000 
594.257080 -120.528343 1145.505981 0.966031 -0.261496 0.751767 0.786244 -1.354185 -2.819682 0.991632 0.196576 0.666520 0.926825 -0.293630 -0.471867 -0.554904 0.603034 2.078004 0.000000 0.000000 0.000000 4.851826 -0.878569 4.146451 -0.179747 -0.263813 -4.664415 0.006100 1.536148 0.706233 0.000000 0.000000 0.000000 -3.164173 -1.669068 0.167967 -1.463769 -1.325072 2.498219 0.800683 49.088201 -0.695364 0.000000 0.000000 0.000000 -20.881351 -0.266849 -0.673937 -20.739269 -2.394635 -3.250596 -20.945197 1.075249 -11.417659 0.000000 0.000000 0.000000 -2.325092 -0.654529 -0.123060 -2.244287 2.337103 -0.703818 -2.159710 3.555939 -1.269680 0.000000 0.000000 0.000000 
594.429321 -120.517517 1145.447998 0.981424 -0.249626 0.762523 0.782131 -1.365342 -2.824710 0.987967 0.196917 0.667595 0.923000 -0.294715 -0.473643 -0.549536 0.617601 2.055686 0.000000 0.000000 0.000000 4.850423 -0.891930 4.163299 -0.181320 -0.277102 -4.704978 0.006074 1.541701 0.708239 0.000000 0.000000 0.000000 -3.175912 -1.679629 0.156467 -1.463873 -1.333975 2.502426 0.800492 49.081085 -0.699825 0.000000 0.000000 0.000000 -20.880199 -0.274356 -0.682002 -20.738759 -2.382610 -3.256959 -20.945369 1.049410 -11.401378 0.000000 0.000000 0.000000 -2.328193 -0.665128 -0.136603 -2.246952 2.351984 -0.707035 -2.163726 3.528154 -1.268629 0.000000 0.000000 0.000000 
594.612610 -120.506104 1145.385986 0.992856 -0.242120 0.770492 0.779892 -1.372653 -2.823871 0.985500 0.197897 0.664888 0.920712 -0.296076 -0.475016 -0.545277 0.629213 2.037990 0.000000 0.000000 0.000000 4.854406 -0.902279 4.178187 -0.183123 -0.286702 -4.743133 0.006045 1.542083 0.708407 0.000000 0.000000 0.000000 -3.185825 -1.692382 0.144914 -1.463177 -1.345183 2.506899 0.801035 49.077823 -0.701633 0.000000 0.000000 0.000000 -20.875525 -0.279495 -0.687690 -20.735463 -2.350304 -3.268296 -20.942333 0.989759 -11.363468 0.000000 0.000000 0.000000 -2.329270 -0.662764 -0.147795 -2.248300 2.355373 -0.709436 -2.166291 3.496311 -1.266571 0.000000 0.000000 0.000000 
